<svg width="16" height="16" viewBox="0 0 16 16" fill="none" xmlns="http://www.w3.org/2000/svg">
<path d="M12 1.33337V2.66671M4 1.33337V2.66671" stroke="#326BF6" stroke-linecap="round" stroke-linejoin="round"/>
<path d="M7.99704 8.66663H8.00304M7.99704 11.3333H8.00304M10.6607 8.66663H10.6667M5.33337 8.66663H5.33935M5.33337 11.3333H5.33935" stroke="#326BF6" stroke-linecap="round" stroke-linejoin="round"/>
<path d="M2.33337 5.33337H13.6667" stroke="#326BF6" stroke-linecap="round" stroke-linejoin="round"/>
<path d="M1.66663 8.16213C1.66663 5.25729 1.66663 3.80485 2.50137 2.90243C3.33612 2 4.67962 2 7.36663 2H8.63329C11.3203 2 12.6638 2 13.4986 2.90243C14.3333 3.80485 14.3333 5.25729 14.3333 8.16213V8.50453C14.3333 11.4094 14.3333 12.8618 13.4986 13.7643C12.6638 14.6667 11.3203 14.6667 8.63329 14.6667H7.36663C4.67962 14.6667 3.33612 14.6667 2.50137 13.7643C1.66663 12.8618 1.66663 11.4094 1.66663 8.50453V8.16213Z" stroke="#326BF6" stroke-linecap="round" stroke-linejoin="round"/>
<path d="M2 5.33337H14" stroke="#326BF6" stroke-linecap="round" stroke-linejoin="round"/>
</svg>
