<svg width="15" height="15" viewBox="0 0 15 15" fill="none" xmlns="http://www.w3.org/2000/svg">
<path d="M11.8149 3.35986L11.4534 9.20784C11.361 10.7019 11.3149 11.449 10.9404 11.9861C10.7552 12.2517 10.5168 12.4758 10.2403 12.6442C9.68117 12.9849 8.93269 12.9849 7.43568 12.9849C5.93676 12.9849 5.18728 12.9849 4.62772 12.6436C4.35107 12.4749 4.11261 12.2503 3.9275 11.9843C3.55312 11.4464 3.50795 10.6983 3.41763 9.20206L3.06494 3.35986" stroke="#FF0000" stroke-linecap="round"/>
<path d="M2.18994 3.36003H12.6899M9.80577 3.36003L9.40758 2.53854C9.14304 1.99284 9.01074 1.72 8.7826 1.54983C8.73202 1.51208 8.67842 1.47851 8.62236 1.44943C8.36972 1.31836 8.0665 1.31836 7.46007 1.31836C6.83841 1.31836 6.52761 1.31836 6.27075 1.45493C6.21383 1.4852 6.15951 1.52013 6.10836 1.55938C5.87756 1.73643 5.74864 2.01926 5.4908 2.58493L5.13748 3.36003" stroke="#FF0000" stroke-linecap="round"/>
<path d="M5.98193 9.77661V6.27661" stroke="#FF0000" stroke-linecap="round"/>
<path d="M8.89795 9.77661V6.27661" stroke="#FF0000" stroke-linecap="round"/>
</svg>
