<svg xmlns="http://www.w3.org/2000/svg" width="12" height="13" viewBox="0 0 12 13" fill="none">
<path d="M6.80026 3.70839C7.08441 3.40053 7.22649 3.2466 7.37745 3.15681C7.74172 2.94016 8.19029 2.93342 8.56066 3.13904C8.71414 3.22425 8.86056 3.37385 9.15345 3.67304C9.44634 3.97223 9.5928 4.12183 9.67619 4.27863C9.87748 4.65696 9.87089 5.11518 9.6588 5.4873C9.57091 5.64153 9.42022 5.78666 9.11886 6.07693L5.53312 9.53058C4.96202 10.0807 4.67646 10.3557 4.31958 10.4951C3.96269 10.6345 3.57036 10.6242 2.78568 10.6037L2.67892 10.6009C2.44004 10.5947 2.32059 10.5915 2.25116 10.5127C2.18173 10.4339 2.19121 10.3123 2.21017 10.069L2.22046 9.93683C2.27382 9.25192 2.3005 8.9095 2.43424 8.60167C2.56798 8.29384 2.79867 8.04392 3.26005 7.54402L6.80026 3.70839Z" stroke="white" stroke-width="0.686019" stroke-linejoin="round"/>
<path d="M6.39087 3.7522L9.06005 6.42138" stroke="white" stroke-width="0.686019" stroke-linejoin="round"/>
</svg>