<svg width="15" height="15" viewBox="0 0 15 15" fill="none" xmlns="http://www.w3.org/2000/svg">
<path d="M8.34375 3.84299C8.69536 3.46204 8.87116 3.27157 9.05796 3.16047C9.50871 2.89239 10.0638 2.88405 10.5221 3.13848C10.7001 3.23731 10.8704 3.40612 11.1894 3.73172L11.2556 3.79925C11.618 4.16947 11.7992 4.35458 11.9024 4.54861C12.1515 5.01675 12.1433 5.58374 11.8809 6.04421C11.779 6.22309 11.6087 6.39208 11.2807 6.70834L11.2128 6.77381L6.7758 11.0473C6.06912 11.728 5.71578 12.0683 5.27417 12.2408C4.83256 12.4133 4.34708 12.4006 3.37613 12.3752L3.24402 12.3718C2.94843 12.364 2.80064 12.3602 2.71472 12.2626C2.62881 12.1652 2.64054 12.0146 2.664 11.7135L2.67674 11.55C2.74276 10.7025 2.77577 10.2788 2.94126 9.89791C3.09637 9.54089 3.35687 9.24684 3.85901 8.70203L3.96312 8.58919L8.34375 3.84299Z" fill="#326BF6" fill-opacity="0.15"/>
<path d="M11.2556 3.79925C11.618 4.16947 11.7992 4.35458 11.9024 4.54861C12.1515 5.01675 12.1433 5.58374 11.8809 6.04421C11.779 6.22309 11.6087 6.39208 11.2807 6.70834M11.2556 3.79925C11.2329 3.77613 11.2107 3.75343 11.1894 3.73172M11.2556 3.79925L11.1894 3.73172M11.2128 6.77381L6.7758 11.0473C6.06912 11.728 5.71578 12.0683 5.27417 12.2408C4.83256 12.4133 4.34708 12.4006 3.37613 12.3752L3.24402 12.3718C2.94843 12.364 2.80064 12.3602 2.71472 12.2626C2.62881 12.1652 2.64054 12.0146 2.664 11.7135L2.67674 11.55C2.74276 10.7025 2.77577 10.2788 2.94126 9.89791C3.09637 9.54089 3.35687 9.24684 3.85901 8.70203M11.2128 6.77381C11.2361 6.75137 11.2589 6.72942 11.2807 6.70834M11.2128 6.77381L11.2807 6.70834M3.96312 8.58919L8.34375 3.84299C8.69536 3.46204 8.87116 3.27157 9.05796 3.16047C9.50871 2.89239 10.0638 2.88405 10.5221 3.13848C10.7001 3.23731 10.8704 3.40612 11.1894 3.73172M3.96312 8.58919C3.92745 8.62783 3.89249 8.66571 3.85901 8.70203M3.96312 8.58919L3.85901 8.70203" stroke="#326BF6" stroke-width="0.659717" stroke-linejoin="round"/>
<path d="M7.8374 3.89722L11.1402 7.20005" stroke="#326BF6" stroke-width="0.659717" stroke-linejoin="round"/>
</svg>
