<svg width="9" height="9" viewBox="0 0 9 9" fill="none" xmlns="http://www.w3.org/2000/svg">
<path fill-rule="evenodd" clip-rule="evenodd" d="M3.06703 0.833241H0.980076V2.9202H3.06703V0.833241ZM0.980076 0.137589C0.795578 0.137589 0.618636 0.21088 0.488176 0.34134C0.357716 0.4718 0.284424 0.648742 0.284424 0.833241V2.9202C0.284424 3.1047 0.357716 3.28164 0.488176 3.4121C0.618636 3.54256 0.795578 3.61585 0.980076 3.61585H3.06703C3.25153 3.61585 3.42847 3.54256 3.55893 3.4121C3.68939 3.28164 3.76268 3.1047 3.76268 2.9202V0.833241C3.76268 0.648742 3.68939 0.4718 3.55893 0.34134C3.42847 0.21088 3.25153 0.137589 3.06703 0.137589H0.980076ZM3.06703 5.35498H0.980076V7.44194H3.06703V5.35498ZM0.980076 4.65933C0.795578 4.65933 0.618636 4.73262 0.488176 4.86308C0.357716 4.99354 0.284424 5.17048 0.284424 5.35498V7.44194C0.284424 7.62643 0.357716 7.80338 0.488176 7.93384C0.618636 8.0643 0.795578 8.13759 0.980076 8.13759H3.06703C3.25153 8.13759 3.42847 8.0643 3.55893 7.93384C3.68939 7.80338 3.76268 7.62643 3.76268 7.44194V5.35498C3.76268 5.17048 3.68939 4.99354 3.55893 4.86308C3.42847 4.73262 3.25153 4.65933 3.06703 4.65933H0.980076ZM7.58877 0.833241H5.50182V2.9202H7.58877V0.833241ZM5.50182 0.137589C5.31732 0.137589 5.14038 0.21088 5.00991 0.34134C4.87946 0.4718 4.80616 0.648742 4.80616 0.833241V2.9202C4.80616 3.1047 4.87946 3.28164 5.00991 3.4121C5.14038 3.54256 5.31732 3.61585 5.50182 3.61585H7.58877C7.77327 3.61585 7.95021 3.54256 8.08067 3.4121C8.21113 3.28164 8.28442 3.1047 8.28442 2.9202V0.833241C8.28442 0.648742 8.21113 0.4718 8.08067 0.34134C7.95021 0.21088 7.77327 0.137589 7.58877 0.137589H5.50182ZM7.58877 5.35498H5.50182V7.44194H7.58877V5.35498ZM5.50182 4.65933C5.31732 4.65933 5.14038 4.73262 5.00991 4.86308C4.87946 4.99354 4.80616 5.17048 4.80616 5.35498V7.44194C4.80616 7.62643 4.87946 7.80338 5.00991 7.93384C5.14038 8.0643 5.31732 8.13759 5.50182 8.13759H7.58877C7.77327 8.13759 7.95021 8.0643 8.08067 7.93384C8.21113 7.80338 8.28442 7.62643 8.28442 7.44194V5.35498C8.28442 5.17048 8.21113 4.99354 8.08067 4.86308C7.95021 4.73262 7.77327 4.65933 7.58877 4.65933H5.50182Z" fill="#326BF6"/>
</svg>
