<svg width="13" height="12" viewBox="0 0 13 12" fill="none" xmlns="http://www.w3.org/2000/svg">
<g id="mingcute:menu-fill">
<rect x="0.275269" y="0.128433" width="11.7431" height="11.7431" rx="5.87156" fill="white"/>
<g id="Group">
<path id="Vector" d="M9.08266 8.01835C9.22403 8.01842 9.35994 8.07288 9.46225 8.17043C9.56456 8.26798 9.62542 8.40116 9.63221 8.54236C9.63901 8.68356 9.59122 8.82196 9.49875 8.92888C9.40627 9.03581 9.27621 9.10306 9.13551 9.1167L9.08266 9.11927H3.2111C3.06974 9.1192 2.93382 9.06475 2.83151 8.96719C2.7292 8.86964 2.66835 8.73646 2.66155 8.59526C2.65476 8.45406 2.70255 8.31566 2.79502 8.20874C2.88749 8.10181 3.01755 8.03456 3.15826 8.02092L3.2111 8.01835H9.08266ZM9.08266 5.44954C9.22865 5.44954 9.36866 5.50754 9.4719 5.61077C9.57513 5.714 9.63312 5.85401 9.63312 6C9.63312 6.14599 9.57513 6.28601 9.4719 6.38924C9.36866 6.49247 9.22865 6.55046 9.08266 6.55046H3.2111C3.06511 6.55046 2.9251 6.49247 2.82187 6.38924C2.71864 6.28601 2.66064 6.14599 2.66064 6C2.66064 5.85401 2.71864 5.714 2.82187 5.61077C2.9251 5.50754 3.06511 5.44954 3.2111 5.44954H9.08266ZM9.08266 2.88074C9.22865 2.88074 9.36866 2.93873 9.4719 3.04196C9.57513 3.14519 9.63312 3.28521 9.63312 3.4312C9.63312 3.57719 9.57513 3.7172 9.4719 3.82043C9.36866 3.92366 9.22865 3.98165 9.08266 3.98165H3.2111C3.06511 3.98165 2.9251 3.92366 2.82187 3.82043C2.71864 3.7172 2.66064 3.57719 2.66064 3.4312C2.66064 3.28521 2.71864 3.14519 2.82187 3.04196C2.9251 2.93873 3.06511 2.88074 3.2111 2.88074H9.08266Z" fill="#326BF6"/>
</g>
</g>
</svg>
