<svg width="18" height="19" viewBox="0 0 18 19" fill="none" xmlns="http://www.w3.org/2000/svg">
<path d="M13.5 10.488H9.75V14.238C9.75 14.4369 9.67098 14.6277 9.53033 14.7684C9.38968 14.909 9.19891 14.988 9 14.988C8.80109 14.988 8.61032 14.909 8.46967 14.7684C8.32902 14.6277 8.25 14.4369 8.25 14.238V10.488H4.5C4.30109 10.488 4.11032 10.409 3.96967 10.2684C3.82902 10.1277 3.75 9.93695 3.75 9.73804C3.75 9.53912 3.82902 9.34836 3.96967 9.20771C4.11032 9.06705 4.30109 8.98804 4.5 8.98804H8.25V5.23804C8.25 5.03912 8.32902 4.84836 8.46967 4.70771C8.61032 4.56705 8.80109 4.48804 9 4.48804C9.19891 4.48804 9.38968 4.56705 9.53033 4.70771C9.67098 4.84836 9.75 5.03912 9.75 5.23804V8.98804H13.5C13.6989 8.98804 13.8897 9.06705 14.0303 9.20771C14.171 9.34836 14.25 9.53912 14.25 9.73804C14.25 9.93695 14.171 10.1277 14.0303 10.2684C13.8897 10.409 13.6989 10.488 13.5 10.488Z" fill="#326BF6"/>
</svg>
