<svg width="16" height="16" viewBox="0 0 16 16" fill="none" xmlns="http://www.w3.org/2000/svg">
<g id="uil:search">
<path id="Vector" d="M14.4734 13.5266L12 11.0733C12.9601 9.87621 13.425 8.3568 13.2992 6.82747C13.1734 5.29814 12.4665 3.87512 11.3237 2.85103C10.1809 1.82694 8.68923 1.27961 7.15531 1.32158C5.62139 1.36356 4.16184 1.99164 3.07679 3.0767C1.99174 4.16175 1.36365 5.62129 1.32167 7.15522C1.2797 8.68914 1.82703 10.1808 2.85112 11.3236C3.87522 12.4664 5.29823 13.1733 6.82756 13.2991C8.35689 13.4249 9.8763 12.96 11.0734 11.9999L13.5267 14.4533C13.5887 14.5158 13.6624 14.5654 13.7436 14.5992C13.8249 14.633 13.912 14.6505 14 14.6505C14.088 14.6505 14.1752 14.633 14.2564 14.5992C14.3377 14.5654 14.4114 14.5158 14.4734 14.4533C14.5935 14.329 14.6607 14.1628 14.6607 13.9899C14.6607 13.817 14.5935 13.6509 14.4734 13.5266ZM7.33336 11.9999C6.41038 11.9999 5.50813 11.7262 4.7407 11.2135C3.97327 10.7007 3.37513 9.97185 3.02192 9.11913C2.66871 8.2664 2.5763 7.32809 2.75636 6.42285C2.93643 5.5176 3.38088 4.68608 4.03353 4.03344C4.68618 3.38079 5.5177 2.93634 6.42294 2.75627C7.32819 2.57621 8.2665 2.66862 9.11922 3.02183C9.97194 3.37504 10.7008 3.97318 11.2136 4.74061C11.7263 5.50804 12 6.41029 12 7.33327C12 8.57095 11.5084 9.75793 10.6332 10.6331C9.75802 11.5083 8.57104 11.9999 7.33336 11.9999Z" fill="#326BF6"/>
</g>
</svg>
