<svg width="20" height="20" viewBox="0 0 20 20" fill="none" xmlns="http://www.w3.org/2000/svg">
<path d="M9.46094 5.48438C9.74219 5.17969 10.2344 5.17969 10.5156 5.48438L13.5156 8.48438C13.7266 8.69531 13.7969 9.02344 13.6797 9.30469C13.5625 9.58594 13.3047 9.77344 13 9.77344H7C6.69531 9.77344 6.41406 9.58594 6.29688 9.30469C6.17969 9.02344 6.25 8.69531 6.46094 8.48438L9.46094 5.48438ZM9.46094 15.5391L6.46094 12.5391C6.25 12.3281 6.17969 12 6.29688 11.7188C6.41406 11.4375 6.69531 11.25 7 11.25H13C13.2812 11.25 13.5625 11.4375 13.6797 11.7188C13.7969 12 13.7266 12.3281 13.5156 12.5391L10.5156 15.5391C10.2344 15.8438 9.74219 15.8438 9.46094 15.5391Z" fill="#636366"/>
</svg>
