<svg width="12" height="13" viewBox="0 0 12 13" fill="none" xmlns="http://www.w3.org/2000/svg">
<g id="view">
<path id="Vector" d="M10.6105 5.77188C10.7595 5.98078 10.834 6.08526 10.834 6.23987C10.834 6.39447 10.7595 6.49895 10.6105 6.70785C9.94106 7.64657 8.23147 9.67013 5.93358 9.67013C3.63569 9.67013 1.9261 7.64657 1.25668 6.70785C1.10769 6.49895 1.0332 6.39447 1.0332 6.23987C1.0332 6.08526 1.10769 5.98078 1.25668 5.77188C1.9261 4.83318 3.63569 2.8096 5.93358 2.8096C8.23147 2.8096 9.94106 4.83318 10.6105 5.77188Z" stroke="#326BF6" stroke-width="1.01387"/>
<path id="Vector_2" d="M7.40379 6.30749C7.40379 5.49554 6.74562 4.83737 5.93368 4.83737C5.12173 4.83737 4.46356 5.49554 4.46356 6.30749C4.46356 7.11943 5.12173 7.7776 5.93368 7.7776C6.74562 7.7776 7.40379 7.11943 7.40379 6.30749Z" stroke="#326BF6" stroke-width="1.01387"/>
</g>
</svg>
