<svg width="16" height="16" viewBox="0 0 16 16" fill="none" xmlns="http://www.w3.org/2000/svg">
<g clip-path="url(#clip0_126_910)">
<path d="M1.87534 10.3112L1.0309 13.9556C1.00177 14.0888 1.00277 14.2269 1.03382 14.3597C1.06488 14.4925 1.1252 14.6166 1.21039 14.7231C1.29558 14.8296 1.40349 14.9157 1.52622 14.9752C1.64895 15.0346 1.78342 15.0659 1.91979 15.0667C1.98333 15.0731 2.04736 15.0731 2.1109 15.0667L5.77756 14.2223L12.8176 7.20894L8.88868 3.28894L1.87534 10.3112Z" fill="white"/>
<path d="M15.0311 3.69778L12.4089 1.07556C12.2365 0.904029 12.0032 0.807739 11.76 0.807739C11.5168 0.807739 11.2835 0.904029 11.1111 1.07556L9.65332 2.53333L13.5778 6.45778L15.0355 5C15.1209 4.91426 15.1884 4.81253 15.2344 4.70065C15.2803 4.58877 15.3038 4.46892 15.3034 4.34797C15.3029 4.22701 15.2787 4.10733 15.232 3.99576C15.1853 3.8842 15.117 3.78294 15.0311 3.69778Z" fill="white"/>
</g>
<defs>
<clipPath id="clip0_126_910">
<rect width="16" height="16" fill="white"/>
</clipPath>
</defs>
</svg>
