<svg width="14" height="14" viewBox="0 0 14 14" fill="none" xmlns="http://www.w3.org/2000/svg">
<g id="filter-vertical">
<path id="Vector" d="M4.14282 12.1429V10.4286" stroke="#326BF6" stroke-linecap="round" stroke-linejoin="round"/>
<path id="Vector_2" d="M9.85706 12.1429V8.71428" stroke="#326BF6" stroke-linecap="round" stroke-linejoin="round"/>
<path id="Vector_3" d="M9.85706 3.57142V1.85713" stroke="#326BF6" stroke-linecap="round" stroke-linejoin="round"/>
<path id="Vector_4" d="M4.14282 5.2857V1.85713" stroke="#326BF6" stroke-linecap="round" stroke-linejoin="round"/>
<path id="Vector_5" d="M4.14287 10.4286C3.61037 10.4286 3.34412 10.4286 3.13409 10.3416C2.85406 10.2256 2.63158 10.0031 2.51558 9.72309C2.42859 9.51303 2.42859 9.2468 2.42859 8.71429C2.42859 8.18177 2.42859 7.91554 2.51558 7.70549C2.63158 7.42549 2.85406 7.20297 3.13409 7.08697C3.34412 7 3.61037 7 4.14287 7C4.67538 7 4.94163 7 5.15166 7.08697C5.43169 7.20297 5.65417 7.42549 5.77017 7.70549C5.85716 7.91554 5.85716 8.18177 5.85716 8.71429C5.85716 9.2468 5.85716 9.51303 5.77017 9.72309C5.65417 10.0031 5.43169 10.2256 5.15166 10.3416C4.94163 10.4286 4.67538 10.4286 4.14287 10.4286Z" stroke="#326BF6"/>
<path id="Vector_6" d="M9.85711 7C9.32459 7 9.05837 7 8.84831 6.91303C8.56831 6.79703 8.34579 6.57451 8.22979 6.29451C8.14282 6.08446 8.14282 5.81822 8.14282 5.28571C8.14282 4.75321 8.14282 4.48696 8.22979 4.27693C8.34579 3.9969 8.56831 3.77441 8.84831 3.65842C9.05837 3.57143 9.32459 3.57143 9.85711 3.57143C10.3896 3.57143 10.6559 3.57143 10.8659 3.65842C11.1459 3.77441 11.3684 3.9969 11.4844 4.27693C11.5714 4.48696 11.5714 4.75321 11.5714 5.28571C11.5714 5.81822 11.5714 6.08446 11.4844 6.29451C11.3684 6.57451 11.1459 6.79703 10.8659 6.91303C10.6559 7 10.3896 7 9.85711 7Z" stroke="#326BF6"/>
</g>
</svg>
