<svg width="19" height="19" viewBox="0 0 19 19" fill="none" xmlns="http://www.w3.org/2000/svg">
<path d="M9.08626 2.73065C13.0437 2.73065 16.2518 5.93875 16.2518 9.89622C16.2518 13.853 13.0437 17.0604 9.08626 17.0604C5.12879 17.0611 1.92212 13.853 1.92212 9.89622C1.9214 5.93875 5.12879 2.73065 9.08626 2.73065ZM9.08626 3.80527C8.28087 3.79654 7.48175 3.94762 6.73514 4.24979C5.98854 4.55195 5.30927 4.99919 4.73667 5.56562C4.16406 6.13205 3.70948 6.80643 3.39924 7.54971C3.08899 8.293 2.92925 9.09043 2.92925 9.89587C2.92925 10.7013 3.08899 11.4987 3.39924 12.242C3.70948 12.9853 4.16406 13.6597 4.73667 14.2261C5.30927 14.7925 5.98854 15.2398 6.73514 15.5419C7.48175 15.8441 8.28087 15.9952 9.08626 15.9865C10.6901 15.9691 12.2224 15.3197 13.3504 14.1794C14.4785 13.0391 15.1112 11.4998 15.1112 9.89587C15.1112 8.29189 14.4785 6.75265 13.3504 5.61233C12.2224 4.47201 10.6901 3.82267 9.08626 3.80527ZM9.08339 8.82017C9.21336 8.82 9.33898 8.86695 9.43698 8.9523C9.53499 9.03766 9.59873 9.15565 9.6164 9.28441L9.62142 9.35748L9.62429 13.2992C9.62568 13.4363 9.57461 13.5687 9.48152 13.6694C9.38844 13.7701 9.2604 13.8314 9.1236 13.8407C8.98681 13.8501 8.85162 13.8067 8.74572 13.7197C8.63982 13.6326 8.57122 13.5083 8.55396 13.3723L8.54966 13.2999L8.5468 9.3582C8.5468 9.21569 8.60341 9.07903 8.70417 8.97826C8.80494 8.8775 8.94161 8.82089 9.08411 8.82089M9.08769 6.31559C9.18354 6.31255 9.27901 6.32881 9.36845 6.3634C9.45789 6.39798 9.53947 6.45018 9.60834 6.51691C9.67721 6.58363 9.73197 6.66352 9.76936 6.75182C9.80676 6.84012 9.82603 6.93503 9.82603 7.03093C9.82603 7.12682 9.80676 7.22173 9.76936 7.31003C9.73197 7.39833 9.67721 7.47822 9.60834 7.54494C9.53947 7.61167 9.45789 7.66387 9.36845 7.69846C9.27901 7.73304 9.18354 7.7493 9.08769 7.74627C8.90189 7.74038 8.72567 7.66244 8.59632 7.52893C8.46696 7.39542 8.39463 7.21682 8.39463 7.03093C8.39463 6.84503 8.46696 6.66643 8.59632 6.53292C8.72567 6.39941 8.90189 6.32147 9.08769 6.31559Z" fill="#326BF6"/>
</svg>
