<svg width="13" height="12" viewBox="0 0 13 12" fill="none" xmlns="http://www.w3.org/2000/svg">
<g id="healthicons:ui-menu-grid-outline">
<rect x="0.275269" y="0.128433" width="11.7431" height="11.7431" rx="5.87156" fill="white"/>
<path id="Vector" fill-rule="evenodd" clip-rule="evenodd" d="M5.06703 2.83324H2.98008V4.9202H5.06703V2.83324ZM2.98008 2.13759C2.79558 2.13759 2.61864 2.21088 2.48818 2.34134C2.35772 2.4718 2.28442 2.64874 2.28442 2.83324V4.9202C2.28442 5.1047 2.35772 5.28164 2.48818 5.4121C2.61864 5.54256 2.79558 5.61585 2.98008 5.61585H5.06703C5.25153 5.61585 5.42847 5.54256 5.55893 5.4121C5.68939 5.28164 5.76268 5.1047 5.76268 4.9202V2.83324C5.76268 2.64874 5.68939 2.4718 5.55893 2.34134C5.42847 2.21088 5.25153 2.13759 5.06703 2.13759H2.98008ZM5.06703 7.35498H2.98008V9.44194H5.06703V7.35498ZM2.98008 6.65933C2.79558 6.65933 2.61864 6.73262 2.48818 6.86308C2.35772 6.99354 2.28442 7.17048 2.28442 7.35498V9.44194C2.28442 9.62643 2.35772 9.80338 2.48818 9.93384C2.61864 10.0643 2.79558 10.1376 2.98008 10.1376H5.06703C5.25153 10.1376 5.42847 10.0643 5.55893 9.93384C5.68939 9.80338 5.76268 9.62643 5.76268 9.44194V7.35498C5.76268 7.17048 5.68939 6.99354 5.55893 6.86308C5.42847 6.73262 5.25153 6.65933 5.06703 6.65933H2.98008ZM9.58877 2.83324H7.50182V4.9202H9.58877V2.83324ZM7.50182 2.13759C7.31732 2.13759 7.14038 2.21088 7.00991 2.34134C6.87946 2.4718 6.80616 2.64874 6.80616 2.83324V4.9202C6.80616 5.1047 6.87946 5.28164 7.00991 5.4121C7.14038 5.54256 7.31732 5.61585 7.50182 5.61585H9.58877C9.77327 5.61585 9.95021 5.54256 10.0807 5.4121C10.2111 5.28164 10.2844 5.1047 10.2844 4.9202V2.83324C10.2844 2.64874 10.2111 2.4718 10.0807 2.34134C9.95021 2.21088 9.77327 2.13759 9.58877 2.13759H7.50182ZM9.58877 7.35498H7.50182V9.44194H9.58877V7.35498ZM7.50182 6.65933C7.31732 6.65933 7.14038 6.73262 7.00991 6.86308C6.87946 6.99354 6.80616 7.17048 6.80616 7.35498V9.44194C6.80616 9.62643 6.87946 9.80338 7.00991 9.93384C7.14038 10.0643 7.31732 10.1376 7.50182 10.1376H9.58877C9.77327 10.1376 9.95021 10.0643 10.0807 9.93384C10.2111 9.80338 10.2844 9.62643 10.2844 9.44194V7.35498C10.2844 7.17048 10.2111 6.99354 10.0807 6.86308C9.95021 6.73262 9.77327 6.65933 9.58877 6.65933H7.50182Z" fill="#326BF6"/>
</g>
</svg>
