<svg width="19" height="19" viewBox="0 0 19 19" fill="none" xmlns="http://www.w3.org/2000/svg">
<path d="M2.57581 4.32055C2.57581 4.10469 2.66156 3.89767 2.81419 3.74504C2.96683 3.5924 3.17384 3.50665 3.3897 3.50665H14.7842C15.0001 3.50665 15.2071 3.5924 15.3598 3.74504C15.5124 3.89767 15.5981 4.10469 15.5981 4.32055V5.94834C15.5981 6.1642 15.5124 6.37122 15.3598 6.52385C15.2071 6.67649 15.0001 6.76224 14.7842 6.76224H3.3897C3.17384 6.76224 2.96683 6.67649 2.81419 6.52385C2.66156 6.37122 2.57581 6.1642 2.57581 5.94834V4.32055ZM2.57581 10.8317C2.57581 10.6159 2.66156 10.4088 2.81419 10.2562C2.96683 10.1036 3.17384 10.0178 3.3897 10.0178H8.27308C8.48894 10.0178 8.69596 10.1036 8.84859 10.2562C9.00123 10.4088 9.08698 10.6159 9.08698 10.8317V15.7151C9.08698 15.931 9.00123 16.138 8.84859 16.2906C8.69596 16.4432 8.48894 16.529 8.27308 16.529H3.3897C3.17384 16.529 2.96683 16.4432 2.81419 16.2906C2.66156 16.138 2.57581 15.931 2.57581 15.7151V10.8317ZM12.3426 10.8317C12.3426 10.6159 12.4283 10.4088 12.5809 10.2562C12.7336 10.1036 12.9406 10.0178 13.1565 10.0178H14.7842C15.0001 10.0178 15.2071 10.1036 15.3598 10.2562C15.5124 10.4088 15.5981 10.6159 15.5981 10.8317V15.7151C15.5981 15.931 15.5124 16.138 15.3598 16.2906C15.2071 16.4432 15.0001 16.529 14.7842 16.529H13.1565C12.9406 16.529 12.7336 16.4432 12.5809 16.2906C12.4283 16.138 12.3426 15.931 12.3426 15.7151V10.8317Z" stroke="#326BF6" stroke-width="1.30223" stroke-linecap="round" stroke-linejoin="round"/>
</svg>
