<svg width="18" height="19" viewBox="0 0 18 19" fill="none" xmlns="http://www.w3.org/2000/svg">
<path d="M13.5 10.2485H9.75V13.9985C9.75 14.1974 9.67098 14.3882 9.53033 14.5288C9.38968 14.6695 9.19891 14.7485 9 14.7485C8.80109 14.7485 8.61032 14.6695 8.46967 14.5288C8.32902 14.3882 8.25 14.1974 8.25 13.9985V10.2485H4.5C4.30109 10.2485 4.11032 10.1695 3.96967 10.0288C3.82902 9.88818 3.75 9.69742 3.75 9.4985C3.75 9.29959 3.82902 9.10883 3.96967 8.96817C4.11032 8.82752 4.30109 8.7485 4.5 8.7485H8.25V4.9985C8.25 4.79959 8.32902 4.60883 8.46967 4.46817C8.61032 4.32752 8.80109 4.2485 9 4.2485C9.19891 4.2485 9.38968 4.32752 9.53033 4.46817C9.67098 4.60883 9.75 4.79959 9.75 4.9985V8.7485H13.5C13.6989 8.7485 13.8897 8.82752 14.0303 8.96817C14.171 9.10883 14.25 9.29959 14.25 9.4985C14.25 9.69742 14.171 9.88818 14.0303 10.0288C13.8897 10.1695 13.6989 10.2485 13.5 10.2485Z" fill="white"/>
</svg>
