<svg width="24" height="25" viewBox="0 0 24 25" fill="none" xmlns="http://www.w3.org/2000/svg">
<path fill-rule="evenodd" clip-rule="evenodd" d="M10.7735 4.57935C11.1479 4.36855 11.5703 4.25781 12 4.25781C12.4296 4.25781 12.8521 4.36855 13.2265 4.57935C13.6009 4.79014 13.9146 5.09388 14.1375 5.46124L14.1399 5.4652L21.1982 17.2485L21.205 17.26C21.4233 17.6381 21.5388 18.0667 21.54 18.5032C21.5412 18.9397 21.4281 19.369 21.2119 19.7482C20.9958 20.1274 20.6841 20.4435 20.3078 20.6649C19.9316 20.8862 19.504 21.0053 19.0675 21.01L19.0583 21.0102L4.93248 21.0101C4.49598 21.0053 4.06834 20.8862 3.69212 20.6649C3.31589 20.4435 3.00419 20.1274 2.78802 19.7482C2.57185 19.369 2.45875 18.9397 2.45997 18.5032C2.46119 18.0667 2.57669 17.6381 2.79498 17.26L2.80175 17.2485L9.86247 5.46124C10.0853 5.09387 10.3991 4.79014 10.7735 4.57935ZM12 5.92448C11.8568 5.92448 11.7159 5.96139 11.5911 6.03166C11.4669 6.1016 11.3627 6.20225 11.2885 6.32396L4.23555 18.0983C4.16457 18.2231 4.12703 18.3642 4.12663 18.5079C4.12622 18.6534 4.16392 18.7965 4.23598 18.9229C4.30804 19.0493 4.41194 19.1546 4.53735 19.2284C4.66166 19.3016 4.80281 19.3412 4.94697 19.3434H19.053C19.1971 19.3412 19.3383 19.3016 19.4626 19.2284C19.588 19.1546 19.6919 19.0493 19.764 18.9229C19.836 18.7965 19.8737 18.6534 19.8733 18.5079C19.8729 18.3642 19.8354 18.2232 19.7644 18.0983L12.7125 6.32562C12.7121 6.32507 12.7118 6.32452 12.7115 6.32396C12.6373 6.20225 12.533 6.1016 12.4088 6.03166C12.284 5.96139 12.1432 5.92448 12 5.92448Z" fill="#AC2734"/>
<path fill-rule="evenodd" clip-rule="evenodd" d="M11.9998 9.34375C12.4601 9.34375 12.8332 9.71685 12.8332 10.1771V13.5104C12.8332 13.9707 12.4601 14.3438 11.9998 14.3438C11.5396 14.3438 11.1665 13.9707 11.1665 13.5104V10.1771C11.1665 9.71685 11.5396 9.34375 11.9998 9.34375Z" fill="#AC2734"/>
<path fill-rule="evenodd" clip-rule="evenodd" d="M11.1665 16.8431C11.1665 16.3829 11.5396 16.0098 11.9998 16.0098H12.0082C12.4684 16.0098 12.8415 16.3829 12.8415 16.8431C12.8415 17.3033 12.4684 17.6764 12.0082 17.6764H11.9998C11.5396 17.6764 11.1665 17.3033 11.1665 16.8431Z" fill="#AC2734"/>
</svg>
