<svg width="8" height="8" viewBox="0 0 8 8" fill="none" xmlns="http://www.w3.org/2000/svg">
<path d="M7.08266 6.01835C7.22403 6.01842 7.35994 6.07288 7.46225 6.17043C7.56456 6.26798 7.62542 6.40116 7.63221 6.54236C7.63901 6.68356 7.59122 6.82196 7.49875 6.92888C7.40627 7.03581 7.27621 7.10306 7.13551 7.1167L7.08266 7.11927H1.2111C1.06974 7.1192 0.933821 7.06475 0.831512 6.96719C0.729203 6.86964 0.668347 6.73646 0.661553 6.59526C0.65476 6.45406 0.70255 6.31566 0.795021 6.20874C0.887492 6.10181 1.01755 6.03456 1.15826 6.02092L1.2111 6.01835H7.08266ZM7.08266 3.44954C7.22865 3.44954 7.36866 3.50754 7.4719 3.61077C7.57513 3.714 7.63312 3.85401 7.63312 4C7.63312 4.14599 7.57513 4.28601 7.4719 4.38924C7.36866 4.49247 7.22865 4.55046 7.08266 4.55046H1.2111C1.06511 4.55046 0.925101 4.49247 0.82187 4.38924C0.718639 4.28601 0.660645 4.14599 0.660645 4C0.660645 3.85401 0.718639 3.714 0.82187 3.61077C0.925101 3.50754 1.06511 3.44954 1.2111 3.44954H7.08266ZM7.08266 0.880737C7.22865 0.880737 7.36866 0.938732 7.4719 1.04196C7.57513 1.14519 7.63312 1.28521 7.63312 1.4312C7.63312 1.57719 7.57513 1.7172 7.4719 1.82043C7.36866 1.92366 7.22865 1.98165 7.08266 1.98165H1.2111C1.06511 1.98165 0.925101 1.92366 0.82187 1.82043C0.718639 1.7172 0.660645 1.57719 0.660645 1.4312C0.660645 1.28521 0.718639 1.14519 0.82187 1.04196C0.925101 0.938732 1.06511 0.880737 1.2111 0.880737H7.08266Z" fill="white"/>
</svg>
