<svg width="10" height="10" viewBox="0 0 10 10" fill="none" xmlns="http://www.w3.org/2000/svg">
<path d="M8.08266 7.01835C8.22403 7.01842 8.35994 7.07288 8.46225 7.17043C8.56456 7.26798 8.62542 7.40116 8.63221 7.54236C8.63901 7.68356 8.59122 7.82196 8.49875 7.92888C8.40627 8.03581 8.27621 8.10306 8.13551 8.1167L8.08266 8.11927H2.2111C2.06974 8.1192 1.93382 8.06475 1.83151 7.96719C1.7292 7.86964 1.66835 7.73646 1.66155 7.59526C1.65476 7.45406 1.70255 7.31566 1.79502 7.20874C1.88749 7.10181 2.01755 7.03456 2.15826 7.02092L2.2111 7.01835H8.08266ZM8.08266 4.44954C8.22865 4.44954 8.36866 4.50754 8.4719 4.61077C8.57513 4.714 8.63312 4.85401 8.63312 5C8.63312 5.14599 8.57513 5.28601 8.4719 5.38924C8.36866 5.49247 8.22865 5.55046 8.08266 5.55046H2.2111C2.06511 5.55046 1.9251 5.49247 1.82187 5.38924C1.71864 5.28601 1.66064 5.14599 1.66064 5C1.66064 4.85401 1.71864 4.714 1.82187 4.61077C1.9251 4.50754 2.06511 4.44954 2.2111 4.44954H8.08266ZM8.08266 1.88074C8.22865 1.88074 8.36866 1.93873 8.4719 2.04196C8.57513 2.14519 8.63312 2.28521 8.63312 2.4312C8.63312 2.57719 8.57513 2.7172 8.4719 2.82043C8.36866 2.92366 8.22865 2.98165 8.08266 2.98165H2.2111C2.06511 2.98165 1.9251 2.92366 1.82187 2.82043C1.71864 2.7172 1.66064 2.57719 1.66064 2.4312C1.66064 2.28521 1.71864 2.14519 1.82187 2.04196C1.9251 1.93873 2.06511 1.88074 2.2111 1.88074H8.08266Z" fill="#326BF6"/>
</svg>
