<svg width="9" height="9" viewBox="0 0 9 9" fill="none" xmlns="http://www.w3.org/2000/svg">
<g id="location-01">
<path id="Vector" d="M4.6918 7.75009C4.55048 7.88241 4.36155 7.9564 4.16492 7.9564C3.9683 7.9564 3.7794 7.88241 3.63805 7.75009C2.34368 6.53084 0.609072 5.16881 1.45499 3.1914C1.91237 2.12223 3.01028 1.43808 4.16492 1.43808C5.31958 1.43808 6.41749 2.12223 6.87488 3.1914C7.71972 5.16633 5.98937 6.53504 4.6918 7.75009Z" stroke="#183455" stroke-width="0.651832"/>
<path id="Vector_2" d="M5.30521 4.37127C5.30521 5.00126 4.7945 5.51197 4.16451 5.51197C3.53451 5.51197 3.0238 5.00126 3.0238 4.37127C3.0238 3.74127 3.53451 3.23056 4.16451 3.23056C4.7945 3.23056 5.30521 3.74127 5.30521 4.37127Z" stroke="#183455" stroke-width="0.651832"/>
</g>
</svg>
