<svg width="19" height="19" viewBox="0 0 19 19" fill="none" xmlns="http://www.w3.org/2000/svg">
<g id="mi:notification">
<path id="Vector" d="M7.75861 3.62608C7.86565 3.36152 8.04926 3.13495 8.28591 2.97541C8.52255 2.81588 8.80144 2.73065 9.08684 2.73065C9.37223 2.73065 9.65113 2.81588 9.88777 2.97541C10.1244 3.13495 10.308 3.36152 10.4151 3.62608C11.4745 3.91743 12.4089 4.5485 13.0749 5.42236C13.7409 6.29622 14.1017 7.36455 14.1017 8.46328V11.8283L15.4142 13.797C15.4862 13.9048 15.5275 14.0303 15.5338 14.1598C15.5401 14.2894 15.5111 14.4182 15.4499 14.5325C15.3887 14.6469 15.2976 14.7425 15.1864 14.8092C15.0751 14.8758 14.9478 14.911 14.8181 14.911H11.5692C11.4829 15.5078 11.1845 16.0536 10.7286 16.4483C10.2727 16.8431 9.68988 17.0604 9.08684 17.0604C8.48379 17.0604 7.90094 16.8431 7.44504 16.4483C6.98914 16.0536 6.69074 15.5078 6.60448 14.911H3.35556C3.22585 14.911 3.09858 14.8758 2.98731 14.8092C2.87605 14.7425 2.78496 14.6469 2.72377 14.5325C2.66258 14.4182 2.63359 14.2894 2.63988 14.1598C2.64617 14.0303 2.68752 13.9048 2.7595 13.797L4.07197 11.8283V8.46328C4.07197 6.15357 5.63374 4.2078 7.75861 3.62608ZM8.07383 14.911C8.14782 15.1206 8.28502 15.3022 8.46652 15.4306C8.64801 15.559 8.86487 15.628 9.0872 15.628C9.30953 15.628 9.52638 15.559 9.70788 15.4306C9.88937 15.3022 10.0266 15.1206 10.1006 14.911H8.07383ZM9.08684 4.88123C8.13682 4.88123 7.22571 5.25862 6.55395 5.93039C5.88218 6.60215 5.50479 7.51326 5.50479 8.46328V12.0453C5.50482 12.1868 5.46294 12.3252 5.38443 12.4429L4.69453 13.4782H13.4784L12.7885 12.4429C12.7103 12.3251 12.6686 12.1868 12.6689 12.0453V8.46328C12.6689 7.51326 12.2915 6.60215 11.6197 5.93039C10.948 5.25862 10.0369 4.88123 9.08684 4.88123Z" fill="#2D69F6"/>
</g>
</svg>
