<svg width="19" height="19" viewBox="0 0 19 19" fill="none" xmlns="http://www.w3.org/2000/svg">
<path d="M12.0329 4.84011C12.0329 4.72822 12.0773 4.62091 12.1564 4.5418C12.2356 4.46268 12.3429 4.41823 12.4547 4.41823H13.7204V3.15261C13.7204 3.04072 13.7648 2.93341 13.8439 2.8543C13.9231 2.77518 14.0304 2.73073 14.1422 2.73073C14.2541 2.73073 14.3614 2.77518 14.4406 2.8543C14.5197 2.93341 14.5641 3.04072 14.5641 3.15261V4.41823H15.8297C15.9416 4.41823 16.0489 4.46268 16.1281 4.5418C16.2072 4.62091 16.2516 4.72822 16.2516 4.84011C16.2516 4.95199 16.2072 5.0593 16.1281 5.13842C16.0489 5.21753 15.9416 5.26198 15.8297 5.26198H14.5641V6.52761C14.5641 6.63949 14.5197 6.7468 14.4406 6.82592C14.3614 6.90503 14.2541 6.94948 14.1422 6.94948C14.0304 6.94948 13.9231 6.90503 13.8439 6.82592C13.7648 6.7468 13.7204 6.63949 13.7204 6.52761V5.26198H12.4547C12.3429 5.26198 12.2356 5.21753 12.1564 5.13842C12.0773 5.0593 12.0329 4.95199 12.0329 4.84011ZM16.1525 8.70729C16.4044 10.2052 16.1737 11.7443 15.4939 13.1026C14.814 14.4608 13.72 15.5678 12.37 16.2639C11.0199 16.9599 9.48364 17.2088 7.98288 16.9748C6.48212 16.7408 5.09456 16.0358 4.02054 14.9618C2.94652 13.8878 2.2416 12.5002 2.00757 10.9995C1.77353 9.49871 2.02249 7.9624 2.7185 6.61235C3.4145 5.26231 4.52154 4.16837 5.87978 3.4885C7.23803 2.80862 8.77719 2.57798 10.2751 2.82987C10.3305 2.83818 10.3837 2.85745 10.4317 2.88657C10.4796 2.91569 10.5212 2.95406 10.5541 2.99946C10.587 3.04485 10.6106 3.09635 10.6234 3.15095C10.6361 3.20554 10.6379 3.26213 10.6286 3.31742C10.6192 3.37271 10.5989 3.42557 10.5689 3.47293C10.5389 3.52029 10.4997 3.56119 10.4537 3.59325C10.4077 3.6253 10.3558 3.64786 10.301 3.65961C10.2462 3.67135 10.1895 3.67206 10.1344 3.66167C9.78585 3.60374 9.4331 3.57458 9.07975 3.57448C7.84454 3.57383 6.63619 3.93489 5.60383 4.61308C4.57146 5.29128 3.76029 6.25694 3.27043 7.39085C2.78057 8.52476 2.63346 9.7773 2.84727 10.9939C3.06108 12.2104 3.62644 13.3377 4.47357 14.2367C5.13643 13.206 6.12723 12.4287 7.28607 12.0303C6.70822 11.6454 6.26956 11.0848 6.03494 10.4313C5.80032 9.77787 5.78219 9.06627 5.98325 8.40173C6.1843 7.73718 6.59386 7.15497 7.15137 6.74117C7.70888 6.32738 8.38475 6.10397 9.07904 6.10397C9.77334 6.10397 10.4492 6.32738 11.0067 6.74117C11.5642 7.15497 11.9738 7.73718 12.1748 8.40173C12.3759 9.06627 12.3578 9.77787 12.1231 10.4313C11.8885 11.0848 11.4499 11.6454 10.872 12.0303C12.0309 12.4287 13.0217 13.206 13.6845 14.2367C14.792 13.0655 15.4087 11.5145 15.4079 9.90261C15.4077 9.54925 15.3786 9.1965 15.3207 8.84792C15.3103 8.79282 15.311 8.7362 15.3227 8.68138C15.3345 8.62655 15.3571 8.57462 15.3891 8.52861C15.4212 8.4826 15.4621 8.44345 15.5094 8.41343C15.5568 8.38342 15.6096 8.36314 15.6649 8.3538C15.7202 8.34445 15.7768 8.34622 15.8314 8.359C15.886 8.37178 15.9375 8.39531 15.9829 8.42822C16.0283 8.46114 16.0667 8.50277 16.0958 8.55068C16.1249 8.5986 16.1442 8.65184 16.1525 8.70729ZM9.07975 11.7307C9.55257 11.7307 10.0148 11.5905 10.4079 11.3278C10.801 11.0652 11.1075 10.6918 11.2884 10.255C11.4693 9.81813 11.5167 9.33745 11.4244 8.87372C11.3322 8.40998 11.1045 7.98401 10.7702 7.64968C10.4358 7.31534 10.0099 7.08766 9.54613 6.99542C9.0824 6.90317 8.60172 6.95052 8.16489 7.13146C7.72806 7.3124 7.3547 7.61881 7.09201 8.01195C6.82933 8.40508 6.68912 8.86729 6.68912 9.34011C6.68912 9.97414 6.94099 10.5822 7.38932 11.0305C7.83765 11.4789 8.44571 11.7307 9.07975 11.7307ZM9.07975 16.2307C10.5276 16.233 11.932 15.7364 13.0566 14.8245C12.644 14.1384 12.061 13.5708 11.3641 13.1767C10.6673 12.7826 9.88031 12.5755 9.07975 12.5755C8.27918 12.5755 7.49222 12.7826 6.79537 13.1767C6.09851 13.5708 5.51546 14.1384 5.10287 14.8245C6.22747 15.7364 7.63189 16.233 9.07975 16.2307Z" fill="#326BF6"/>
</svg>
