<svg width="20" height="20" viewBox="0 0 20 20" fill="none" xmlns="http://www.w3.org/2000/svg">
<path d="M14.6303 2.2629L10.7412 5.68431C10.6414 5.78799 10.3423 5.78799 10.2426 5.68431C10.1428 5.58063 10.1428 5.26959 10.2426 5.16591L14.1317 1.74451C14.2314 1.64083 14.5306 1.64083 14.6303 1.74451C14.73 1.95187 14.73 2.15922 14.6303 2.2629Z" fill="#4B6A8F"/>
<path d="M17.5223 18.2297H15.4281C15.2287 18.2297 15.0293 18.1261 14.8298 18.0224L13.9323 17.4003C13.8326 17.4003 13.7329 17.4003 13.7329 17.4003L12.636 18.0224C12.2371 18.2297 11.7385 18.1261 11.3396 17.815L10.2427 16.8819C10.1429 16.7782 10.0432 16.7782 9.9435 16.8819L8.74685 18.0224C8.54741 18.2297 8.24824 18.3334 7.94908 18.3334H2.16527C1.86611 18.3334 1.66667 18.1261 1.66667 17.815C1.66667 17.504 1.86611 17.2966 2.16527 17.2966H7.94908C8.0488 17.2966 8.0488 17.2966 8.0488 17.1929L9.24546 16.0525C9.64434 15.6377 10.3424 15.6377 10.7413 16.0525L11.8382 16.9856C11.9379 17.0893 12.0376 17.0893 12.0376 16.9856L13.1346 16.4672C13.5335 16.2598 13.9323 16.2598 14.3312 16.5709L15.2287 17.1929H17.4226C17.7217 17.1929 17.9212 17.4003 17.9212 17.7113C17.9212 18.0223 17.8214 18.2297 17.5223 18.2297Z" fill="#4B6A8F"/>
<path d="M5.05717 11.8016L7.05158 14.1862C7.05158 14.1862 7.05158 14.2899 7.05158 14.3936L6.25382 15.1193L2.46442 16.5708C2.26498 16.6745 2.06554 16.4672 2.16526 16.2598L4.15968 12.5273L4.95744 11.8016C4.95744 11.6979 5.05717 11.6979 5.05717 11.8016Z" fill="#4B6A8F"/>
<path d="M7.5501 13.6675L5.55568 11.2829C5.55568 11.2829 5.55568 11.1792 5.55568 11.0755L13.5333 4.02535C13.5333 4.02535 13.6331 4.02535 13.7328 4.02535L15.7272 6.40996C15.7272 6.40996 15.7272 6.51366 15.7272 6.61733L7.74954 13.6675C7.74954 13.7712 7.64982 13.7712 7.5501 13.6675Z" fill="#4B6A8F"/>
<path d="M17.9211 4.75126L16.4253 6.09914C16.4253 6.09914 16.3256 6.09914 16.2259 6.09914L14.2315 3.71447C14.2315 3.71447 14.2315 3.61084 14.2315 3.50716L15.7273 2.15928C16.2259 1.74456 16.9239 1.7446 17.3228 2.26299L17.9211 2.98876C18.5195 3.50716 18.4197 4.23286 17.9211 4.75126Z" fill="#4B6A8F"/>
</svg>
